# Blender v2.79 (sub 0) OBJ File: ''
# www.blender.org
o Cube.001
v 1.000000 -1.000000 -3.000000
v 1.000000 -1.000000 -1.000000
v -1.000000 -1.000000 -1.000000
v -1.000000 -1.000000 -3.000000
v 1.000000 1.000000 -3.000000
v 0.999999 1.000000 -0.999999
v -1.000000 1.000000 -1.000000
v -1.000000 1.000000 -3.000000
vn 0.0000 -1.0000 0.0000
vn 0.0000 1.0000 0.0000
vn 1.0000 -0.0000 0.0000
vn -0.0000 -0.0000 1.0000
vn -1.0000 -0.0000 -0.0000
vn 0.0000 0.0000 -1.0000
s off
f 2//1 4//1 1//1
f 8//2 6//2 5//2
f 5//3 2//3 1//3
f 6//4 3//4 2//4
f 3//5 8//5 4//5
f 1//6 8//6 5//6
f 2//1 3//1 4//1
f 8//2 7//2 6//2
f 5//3 6//3 2//3
f 6//4 7//4 3//4
f 3//5 7//5 8//5
f 1//6 4//6 8//6
o Cube
v 1.000000 -1.000000 1.000000
v 1.000000 -1.000000 3.000000
v -1.000000 -1.000000 3.000000
v -1.000000 -1.000000 1.000000
v 1.000000 1.000000 1.000000
v 0.999999 1.000000 3.000000
v -1.000000 1.000000 3.000000
v -1.000000 1.000000 1.000000
vn 0.0000 -1.0000 0.0000
vn 0.0000 1.0000 0.0000
vn 1.0000 -0.0000 0.0000
vn -0.0000 -0.0000 1.0000
vn -1.0000 -0.0000 -0.0000
vn 0.0000 0.0000 -1.0000
s off
f 10//7 12//7 9//7
f 16//8 14//8 13//8
f 13//9 10//9 9//9
f 14//10 11//10 10//10
f 11//11 16//11 12//11
f 9//12 16//12 13//12
f 10//7 11//7 12//7
f 16//8 15//8 14//8
f 13//9 14//9 10//9
f 14//10 15//10 11//10
f 11//11 15//11 16//11
f 9//12 12//12 16//12
