# Blender v2.79 (sub 0) OBJ File: ''
# www.blender.org
mtllib aperture_test.mtl
o Circle.011
v 1.762998 4.239910 0.613193
v 1.709239 4.239910 0.618488
v 1.657547 4.239910 0.634169
v 1.609907 4.239910 0.659633
v 1.568150 4.239910 0.693902
v 1.533880 4.239910 0.735659
v 1.508416 4.239910 0.783300
v 1.492736 4.239910 0.834992
v 1.487441 4.239910 0.888751
v 1.492736 4.239910 0.942509
v 1.508416 4.239910 0.994202
v 1.533880 4.239910 1.041842
v 1.568150 4.239910 1.083599
v 1.609907 4.239910 1.117868
v 1.657547 4.239910 1.143332
v 1.709239 4.239910 1.159013
v 1.762998 4.239910 1.164308
v 1.816757 4.239910 1.159013
v 1.868449 4.239910 1.143332
v 1.916090 4.239910 1.117868
v 1.957847 4.239910 1.083599
v 1.992115 4.239910 1.041842
v 2.017580 4.239910 0.994202
v 2.033261 4.239910 0.942509
v 2.038555 4.239910 0.888750
v 2.033260 4.239910 0.834992
v 2.017580 4.239910 0.783299
v 1.992115 4.239910 0.735659
v 1.957846 4.239910 0.693902
v 1.916089 4.239910 0.659633
v 1.868449 4.239910 0.634169
v 1.816756 4.239910 0.618488
vn 0.0000 1.0000 0.0000
vn 0.0000 1.0000 0.0001
vn 0.0000 1.0000 -0.0001
usemtl Bright
s off
f 1//1 9//1 17//1
f 1//1 2//1 5//1
f 2//1 3//1 5//1
f 3//1 4//1 5//1
f 5//1 6//1 7//1
f 7//1 8//1 5//1
f 8//1 9//1 5//1
f 9//1 10//1 11//1
f 11//1 12//1 13//1
f 13//2 14//2 15//2
f 15//1 16//1 13//1
f 16//1 17//1 13//1
f 17//3 18//3 19//3
f 19//1 20//1 21//1
f 21//1 22//1 23//1
f 23//1 24//1 21//1
f 24//1 25//1 21//1
f 25//1 26//1 27//1
f 27//1 28//1 29//1
f 29//3 30//3 31//3
f 31//1 32//1 29//1
f 32//1 1//1 29//1
f 9//1 11//1 17//1
f 11//1 13//1 17//1
f 17//1 19//1 25//1
f 19//1 21//1 25//1
f 25//1 27//1 29//1
f 1//1 5//1 9//1
f 25//1 29//1 17//1
f 29//1 1//1 17//1
o Circle.010
v 3.871836 -16.649679 -0.275557
v 3.818077 -16.649679 -0.270262
v 3.766385 -16.649679 -0.254582
v 3.718744 -16.649679 -0.229117
v 3.676987 -16.649679 -0.194848
v 3.642718 -16.649679 -0.153091
v 3.617254 -16.649679 -0.105451
v 3.601573 -16.649679 -0.053759
v 3.596278 -16.649679 -0.000000
v 3.601573 -16.649679 0.053759
v 3.617254 -16.649679 0.105451
v 3.642718 -16.649679 0.153091
v 3.676987 -16.649679 0.194848
v 3.718744 -16.649679 0.229117
v 3.766385 -16.649679 0.254582
v 3.818077 -16.649679 0.270262
v 3.871836 -16.649679 0.275557
v 3.925594 -16.649679 0.270262
v 3.977287 -16.649679 0.254582
v 4.024927 -16.649679 0.229117
v 4.066684 -16.649679 0.194848
v 4.100953 -16.649679 0.153091
v 4.126418 -16.649679 0.105451
v 4.142098 -16.649679 0.053758
v 4.147393 -16.649679 -0.000000
v 4.142098 -16.649679 -0.053759
v 4.126417 -16.649679 -0.105451
v 4.100953 -16.649679 -0.153092
v 4.066684 -16.649679 -0.194849
v 4.024927 -16.649679 -0.229118
v 3.977287 -16.649679 -0.254582
v 3.925594 -16.649679 -0.270263
vn 0.0000 1.0000 0.0000
vn 0.0000 1.0000 -0.0001
vn 0.0000 1.0000 0.0001
vn 0.0000 1.0000 -0.0002
vn 0.0000 1.0000 0.0002
usemtl Bright
s off
f 33//4 41//4 49//4
f 33//5 34//5 37//5
f 34//6 35//6 37//6
f 35//4 36//4 37//4
f 37//7 38//7 39//7
f 39//4 40//4 37//4
f 40//4 41//4 37//4
f 41//5 42//5 43//5
f 43//8 44//8 45//8
f 45//4 46//4 47//4
f 47//4 48//4 45//4
f 48//4 49//4 45//4
f 49//4 50//4 51//4
f 51//4 52//4 53//4
f 53//6 54//6 55//6
f 55//4 56//4 53//4
f 56//4 57//4 53//4
f 57//6 58//6 59//6
f 59//7 60//7 61//7
f 61//4 62//4 63//4
f 63//4 64//4 61//4
f 64//6 33//6 61//6
f 41//4 43//4 49//4
f 43//4 45//4 49//4
f 49//4 51//4 57//4
f 51//4 53//4 57//4
f 57//4 59//4 61//4
f 33//4 37//4 41//4
f 57//4 61//4 49//4
f 61//4 33//4 49//4
o Circle.009
v 3.998236 -23.916035 -1.304846
v 3.944478 -23.916035 -1.299551
v 3.892785 -23.916035 -1.283870
v 3.845145 -23.916035 -1.258406
v 3.803388 -23.916035 -1.224137
v 3.769119 -23.916035 -1.182380
v 3.743654 -23.916035 -1.134740
v 3.727974 -23.916035 -1.083047
v 3.722679 -23.916035 -1.029289
v 3.727974 -23.916035 -0.975530
v 3.743654 -23.916035 -0.923838
v 3.769119 -23.916035 -0.876197
v 3.803388 -23.916035 -0.834440
v 3.845145 -23.916035 -0.800171
v 3.892785 -23.916035 -0.774707
v 3.944478 -23.916035 -0.759026
v 3.998236 -23.916035 -0.753732
v 4.051995 -23.916035 -0.759026
v 4.103687 -23.916035 -0.774707
v 4.151328 -23.916035 -0.800171
v 4.193085 -23.916035 -0.834441
v 4.227354 -23.916035 -0.876198
v 4.252818 -23.916035 -0.923838
v 4.268499 -23.916035 -0.975530
v 4.273793 -23.916035 -1.029289
v 4.268498 -23.916035 -1.083048
v 4.252818 -23.916035 -1.134740
v 4.227354 -23.916035 -1.182380
v 4.193084 -23.916035 -1.224137
v 4.151327 -23.916035 -1.258406
v 4.103687 -23.916035 -1.283871
v 4.051994 -23.916035 -1.299551
vn 0.0000 1.0000 0.0000
vn 0.0000 1.0000 0.0003
vn 0.0000 1.0000 -0.0002
vn 0.0000 1.0000 0.0002
vn 0.0000 1.0000 -0.0001
vn 0.0000 1.0000 -0.0003
vn 0.0000 1.0000 -0.0004
vn 0.0000 1.0000 0.0001
usemtl Bright
s off
f 65//9 73//9 81//9
f 65//9 66//9 69//9
f 66//10 67//10 69//10
f 67//11 68//11 69//11
f 69//12 70//12 71//12
f 71//9 72//9 69//9
f 72//13 73//13 69//13
f 73//13 74//13 75//13
f 75//11 76//11 77//11
f 77//9 78//9 79//9
f 79//14 80//14 77//14
f 80//9 81//9 77//9
f 81//15 82//15 83//15
f 83//12 84//12 85//12
f 85//11 86//11 87//11
f 87//9 88//9 85//9
f 88//9 89//9 85//9
f 89//16 90//16 91//16
f 91//9 92//9 93//9
f 93//9 94//9 95//9
f 95//10 96//10 93//10
f 96//9 65//9 93//9
f 73//9 75//9 81//9
f 75//16 77//16 81//16
f 81//9 83//9 89//9
f 83//9 85//9 89//9
f 89//13 91//13 93//13
f 65//9 69//9 73//9
f 89//9 93//9 81//9
f 93//9 65//9 81//9
o Circle.008
v 2.214067 -19.952343 -0.275557
v 2.160308 -19.952343 -0.270262
v 2.108616 -19.952343 -0.254582
v 2.060975 -19.952343 -0.229117
v 2.019218 -19.952343 -0.194848
v 1.984949 -19.952343 -0.153091
v 1.959485 -19.952343 -0.105451
v 1.943804 -19.952343 -0.053759
v 1.938509 -19.952343 -0.000000
v 1.943804 -19.952343 0.053759
v 1.959485 -19.952343 0.105451
v 1.984949 -19.952343 0.153091
v 2.019218 -19.952343 0.194848
v 2.060975 -19.952343 0.229117
v 2.108616 -19.952343 0.254582
v 2.160308 -19.952343 0.270262
v 2.214067 -19.952343 0.275557
v 2.267825 -19.952343 0.270262
v 2.319518 -19.952343 0.254582
v 2.367158 -19.952343 0.229117
v 2.408915 -19.952343 0.194848
v 2.443184 -19.952343 0.153091
v 2.468648 -19.952343 0.105451
v 2.484329 -19.952343 0.053758
v 2.489624 -19.952343 -0.000000
v 2.484329 -19.952343 -0.053759
v 2.468648 -19.952343 -0.105451
v 2.443184 -19.952343 -0.153092
v 2.408915 -19.952343 -0.194849
v 2.367158 -19.952343 -0.229118
v 2.319518 -19.952343 -0.254582
v 2.267825 -19.952343 -0.270263
vn 0.0000 1.0000 0.0000
vn 0.0000 1.0000 -0.0004
vn 0.0000 1.0000 -0.0001
usemtl Bright
s off
f 97//17 105//17 113//17
f 97//17 98//17 101//17
f 98//17 99//17 101//17
f 99//17 100//17 101//17
f 101//17 102//17 103//17
f 103//17 104//17 101//17
f 104//17 105//17 101//17
f 105//17 106//17 107//17
f 107//17 108//17 109//17
f 109//17 110//17 111//17
f 111//17 112//17 109//17
f 112//17 113//17 109//17
f 113//18 114//18 115//18
f 115//17 116//17 117//17
f 117//17 118//17 119//17
f 119//17 120//17 117//17
f 120//19 121//19 117//19
f 121//17 122//17 123//17
f 123//17 124//17 125//17
f 125//17 126//17 127//17
f 127//17 128//17 125//17
f 128//17 97//17 125//17
f 105//17 107//17 113//17
f 107//17 109//17 113//17
f 113//17 115//17 121//17
f 115//17 117//17 121//17
f 121//17 123//17 125//17
f 97//17 101//17 105//17
f 121//17 125//17 113//17
f 125//17 97//17 113//17
o Circle.007
v 1.268359 -10.603259 0.713121
v 1.214601 -10.603259 0.718416
v 1.162908 -10.603259 0.734097
v 1.115268 -10.603259 0.759561
v 1.073511 -10.603259 0.793830
v 1.039242 -10.603259 0.835587
v 1.013778 -10.603259 0.883227
v 0.998097 -10.603259 0.934920
v 0.992802 -10.603259 0.988679
v 0.998097 -10.603259 1.042437
v 1.013778 -10.603259 1.094130
v 1.039242 -10.603259 1.141770
v 1.073511 -10.603259 1.183527
v 1.115268 -10.603259 1.217796
v 1.162908 -10.603259 1.243260
v 1.214601 -10.603259 1.258941
v 1.268360 -10.603259 1.264236
v 1.322118 -10.603259 1.258941
v 1.373811 -10.603259 1.243260
v 1.421451 -10.603259 1.217796
v 1.463208 -10.603259 1.183527
v 1.497477 -10.603259 1.141770
v 1.522941 -10.603259 1.094130
v 1.538622 -10.603259 1.042437
v 1.543917 -10.603259 0.988678
v 1.538622 -10.603259 0.934920
v 1.522941 -10.603259 0.883227
v 1.497477 -10.603259 0.835587
v 1.463208 -10.603259 0.793830
v 1.421450 -10.603259 0.759561
v 1.373810 -10.603259 0.734097
v 1.322118 -10.603259 0.718416
vn 0.0000 1.0000 0.0000
vn 0.0000 1.0000 0.0001
vn 0.0000 1.0000 -0.0001
usemtl Bright
s off
f 129//20 137//20 145//20
f 129//21 130//21 133//21
f 130//20 131//20 133//20
f 131//20 132//20 133//20
f 133//20 134//20 135//20
f 135//20 136//20 133//20
f 136//20 137//20 133//20
f 137//20 138//20 139//20
f 139//20 140//20 141//20
f 141//20 142//20 143//20
f 143//20 144//20 141//20
f 144//20 145//20 141//20
f 145//20 146//20 147//20
f 147//20 148//20 149//20
f 149//20 150//20 151//20
f 151//20 152//20 149//20
f 152//20 153//20 149//20
f 153//20 154//20 155//20
f 155//22 156//22 157//22
f 157//20 158//20 159//20
f 159//21 160//21 157//21
f 160//20 129//20 157//20
f 137//20 139//20 145//20
f 139//20 141//20 145//20
f 145//20 147//20 153//20
f 147//20 149//20 153//20
f 153//20 155//20 157//20
f 129//20 133//20 137//20
f 153//20 157//20 145//20
f 157//20 129//20 145//20
o Circle.006
v 0.378282 8.144489 -0.835829
v 0.324524 8.144489 -0.830534
v 0.272831 8.144489 -0.814853
v 0.225191 8.144489 -0.789389
v 0.183434 8.144489 -0.755120
v 0.149165 8.144489 -0.713363
v 0.123700 8.144489 -0.665723
v 0.108020 8.144489 -0.614030
v 0.102725 8.144489 -0.560272
v 0.108020 8.144489 -0.506513
v 0.123700 8.144489 -0.454820
v 0.149165 8.144489 -0.407180
v 0.183434 8.144489 -0.365423
v 0.225191 8.144489 -0.331154
v 0.272831 8.144489 -0.305690
v 0.324524 8.144489 -0.290009
v 0.378282 8.144489 -0.284714
v 0.432041 8.144489 -0.290009
v 0.483733 8.144489 -0.305690
v 0.531374 8.144489 -0.331154
v 0.573131 8.144489 -0.365423
v 0.607400 8.144489 -0.407180
v 0.632864 8.144489 -0.454821
v 0.648545 8.144489 -0.506513
v 0.653839 8.144489 -0.560272
v 0.648544 8.144489 -0.614030
v 0.632864 8.144489 -0.665723
v 0.607399 8.144489 -0.713363
v 0.573130 8.144489 -0.755120
v 0.531373 8.144489 -0.789389
v 0.483733 8.144489 -0.814853
v 0.432040 8.144489 -0.830534
vn 0.0000 1.0000 -0.0000
vn 0.0000 1.0000 0.0001
vn 0.0000 1.0000 -0.0001
usemtl Bright
s off
f 161//23 169//23 177//23
f 161//23 162//23 165//23
f 162//23 163//23 165//23
f 163//24 164//24 165//24
f 165//23 166//23 167//23
f 167//23 168//23 165//23
f 168//23 169//23 165//23
f 169//25 170//25 171//25
f 171//23 172//23 173//23
f 173//25 174//25 175//25
f 175//23 176//23 173//23
f 176//23 177//23 173//23
f 177//23 178//23 179//23
f 179//25 180//25 181//25
f 181//23 182//23 183//23
f 183//23 184//23 181//23
f 184//23 185//23 181//23
f 185//23 186//23 187//23
f 187//23 188//23 189//23
f 189//25 190//25 191//25
f 191//23 192//23 189//23
f 192//23 161//23 189//23
f 169//23 171//23 177//23
f 171//23 173//23 177//23
f 177//23 179//23 185//23
f 179//23 181//23 185//23
f 185//23 187//23 189//23
f 161//23 165//23 169//23
f 185//23 189//23 177//23
f 189//23 161//23 177//23
o Circle.005
v -1.401096 6.159346 -0.341560
v -1.454854 6.159346 -0.336265
v -1.506547 6.159346 -0.320584
v -1.554187 6.159346 -0.295120
v -1.595944 6.159346 -0.260851
v -1.630213 6.159346 -0.219094
v -1.655677 6.159346 -0.171454
v -1.671358 6.159346 -0.119761
v -1.676653 6.159346 -0.066003
v -1.671358 6.159346 -0.012244
v -1.655677 6.159346 0.039448
v -1.630213 6.159346 0.087089
v -1.595944 6.159346 0.128846
v -1.554187 6.159346 0.163115
v -1.506547 6.159346 0.188579
v -1.454854 6.159346 0.204260
v -1.401096 6.159346 0.209554
v -1.347337 6.159346 0.204260
v -1.295644 6.159346 0.188579
v -1.248004 6.159346 0.163115
v -1.206247 6.159346 0.128845
v -1.171978 6.159346 0.087088
v -1.146514 6.159346 0.039448
v -1.130833 6.159346 -0.012244
v -1.125538 6.159346 -0.066003
v -1.130833 6.159346 -0.119762
v -1.146514 6.159346 -0.171454
v -1.171978 6.159346 -0.219094
v -1.206247 6.159346 -0.260851
v -1.248005 6.159346 -0.295120
v -1.295645 6.159346 -0.320585
v -1.347337 6.159346 -0.336265
vn 0.0000 1.0000 0.0000
vn 0.0000 1.0000 -0.0001
vn 0.0000 1.0000 0.0001
usemtl Bright
s off
f 193//26 201//26 209//26
f 193//27 194//27 197//27
f 194//26 195//26 197//26
f 195//26 196//26 197//26
f 197//26 198//26 199//26
f 199//26 200//26 197//26
f 200//26 201//26 197//26
f 201//26 202//26 203//26
f 203//26 204//26 205//26
f 205//28 206//28 207//28
f 207//27 208//27 205//27
f 208//26 209//26 205//26
f 209//28 210//28 211//28
f 211//26 212//26 213//26
f 213//26 214//26 215//26
f 215//26 216//26 213//26
f 216//26 217//26 213//26
f 217//26 218//26 219//26
f 219//26 220//26 221//26
f 221//27 222//27 223//27
f 223//26 224//26 221//26
f 224//26 193//26 221//26
f 201//26 203//26 209//26
f 203//26 205//26 209//26
f 209//26 211//26 217//26
f 211//26 213//26 217//26
f 217//26 219//26 221//26
f 193//26 197//26 201//26
f 217//26 221//26 209//26
f 221//26 193//26 209//26
o Circle.004
v -1.360414 -2.751596 1.595288
v -1.414173 -2.751596 1.600582
v -1.465866 -2.751596 1.616263
v -1.513506 -2.751596 1.641727
v -1.555263 -2.751596 1.675996
v -1.589532 -2.751596 1.717753
v -1.614996 -2.751596 1.765393
v -1.630677 -2.751596 1.817086
v -1.635972 -2.751596 1.870845
v -1.630677 -2.751596 1.924603
v -1.614996 -2.751596 1.976296
v -1.589532 -2.751596 2.023936
v -1.555263 -2.751596 2.065693
v -1.513506 -2.751596 2.099962
v -1.465865 -2.751596 2.125426
v -1.414173 -2.751596 2.141107
v -1.360414 -2.751596 2.146402
v -1.306656 -2.751596 2.141107
v -1.254963 -2.751596 2.125426
v -1.207323 -2.751596 2.099962
v -1.165566 -2.751596 2.065693
v -1.131297 -2.751596 2.023936
v -1.105833 -2.751596 1.976296
v -1.090152 -2.751596 1.924603
v -1.084857 -2.751596 1.870844
v -1.090152 -2.751596 1.817086
v -1.105833 -2.751596 1.765393
v -1.131297 -2.751596 1.717753
v -1.165566 -2.751596 1.675996
v -1.207323 -2.751596 1.641727
v -1.254964 -2.751596 1.616263
v -1.306656 -2.751596 1.600582
vn 0.0000 1.0000 -0.0000
usemtl Bright
s off
f 225//29 233//29 241//29
f 225//29 226//29 229//29
f 226//29 227//29 229//29
f 227//29 228//29 229//29
f 229//29 230//29 231//29
f 231//29 232//29 229//29
f 232//29 233//29 229//29
f 233//29 234//29 235//29
f 235//29 236//29 237//29
f 237//29 238//29 239//29
f 239//29 240//29 237//29
f 240//29 241//29 237//29
f 241//29 242//29 243//29
f 243//29 244//29 245//29
f 245//29 246//29 247//29
f 247//29 248//29 245//29
f 248//29 249//29 245//29
f 249//29 250//29 251//29
f 251//29 252//29 253//29
f 253//29 254//29 255//29
f 255//29 256//29 253//29
f 256//29 225//29 253//29
f 233//29 235//29 241//29
f 235//29 237//29 241//29
f 241//29 243//29 249//29
f 243//29 245//29 249//29
f 249//29 251//29 253//29
f 225//29 229//29 233//29
f 249//29 253//29 241//29
f 253//29 225//29 241//29
o Circle.003
v -2.214068 -9.766061 -1.437099
v -2.267827 -9.766061 -1.431804
v -2.319519 -9.766061 -1.416123
v -2.367160 -9.766061 -1.390659
v -2.408916 -9.766061 -1.356390
v -2.443186 -9.766061 -1.314633
v -2.468650 -9.766061 -1.266993
v -2.484331 -9.766061 -1.215300
v -2.489625 -9.766061 -1.161541
v -2.484331 -9.766061 -1.107783
v -2.468650 -9.766061 -1.056090
v -2.443186 -9.766061 -1.008450
v -2.408916 -9.766061 -0.966693
v -2.367160 -9.766061 -0.932424
v -2.319519 -9.766061 -0.906960
v -2.267827 -9.766061 -0.891279
v -2.214068 -9.766061 -0.885984
v -2.160310 -9.766061 -0.891279
v -2.108617 -9.766061 -0.906960
v -2.060977 -9.766061 -0.932424
v -2.019220 -9.766061 -0.966693
v -1.984951 -9.766061 -1.008450
v -1.959486 -9.766061 -1.056090
v -1.943806 -9.766061 -1.107783
v -1.938511 -9.766061 -1.161542
v -1.943806 -9.766061 -1.215300
v -1.959487 -9.766061 -1.266993
v -1.984951 -9.766061 -1.314633
v -2.019220 -9.766061 -1.356390
v -2.060977 -9.766061 -1.390659
v -2.108617 -9.766061 -1.416123
v -2.160310 -9.766061 -1.431804
vn 0.0000 1.0000 0.0000
vn 0.0000 1.0000 -0.0001
vn 0.0000 1.0000 0.0001
usemtl Bright
s off
f 257//30 265//30 273//30
f 257//30 258//30 261//30
f 258//31 259//31 261//31
f 259//32 260//32 261//32
f 261//32 262//32 263//32
f 263//30 264//30 261//30
f 264//30 265//30 261//30
f 265//30 266//30 267//30
f 267//31 268//31 269//31
f 269//31 270//31 271//31
f 271//30 272//30 269//30
f 272//32 273//32 269//32
f 273//30 274//30 275//30
f 275//31 276//31 277//31
f 277//30 278//30 279//30
f 279//30 280//30 277//30
f 280//30 281//30 277//30
f 281//30 282//30 283//30
f 283//30 284//30 285//30
f 285//32 286//32 287//32
f 287//30 288//30 285//30
f 288//31 257//31 285//31
f 265//30 267//30 273//30
f 267//30 269//30 273//30
f 273//30 275//30 281//30
f 275//30 277//30 281//30
f 281//30 283//30 285//30
f 257//30 261//30 265//30
f 281//30 285//30 273//30
f 285//30 257//30 273//30
o Circle.002
v -1.356404 -16.104040 0.546200
v -1.410163 -16.104040 0.551495
v -1.461856 -16.104040 0.567176
v -1.509496 -16.104040 0.592640
v -1.551253 -16.104040 0.626909
v -1.585522 -16.104040 0.668666
v -1.610986 -16.104040 0.716307
v -1.626667 -16.104040 0.767999
v -1.631962 -16.104040 0.821758
v -1.626667 -16.104040 0.875516
v -1.610986 -16.104040 0.927209
v -1.585522 -16.104040 0.974849
v -1.551253 -16.104040 1.016606
v -1.509496 -16.104040 1.050875
v -1.461856 -16.104040 1.076339
v -1.410163 -16.104040 1.092020
v -1.356404 -16.104040 1.097315
v -1.302646 -16.104040 1.092020
v -1.250953 -16.104040 1.076339
v -1.203313 -16.104040 1.050875
v -1.161556 -16.104040 1.016606
v -1.127287 -16.104040 0.974849
v -1.101823 -16.104040 0.927209
v -1.086142 -16.104040 0.875516
v -1.080847 -16.104040 0.821757
v -1.086142 -16.104040 0.767999
v -1.101823 -16.104040 0.716306
v -1.127287 -16.104040 0.668666
v -1.161556 -16.104040 0.626909
v -1.203313 -16.104040 0.592640
v -1.250954 -16.104040 0.567176
v -1.302646 -16.104040 0.551495
vn 0.0000 1.0000 0.0000
vn 0.0000 1.0000 -0.0001
vn 0.0000 1.0000 0.0002
vn 0.0000 1.0000 -0.0002
usemtl Bright
s off
f 289//33 297//33 305//33
f 289//33 290//33 293//33
f 290//34 291//34 293//34
f 291//35 292//35 293//35
f 293//33 294//33 295//33
f 295//33 296//33 293//33
f 296//33 297//33 293//33
f 297//33 298//33 299//33
f 299//33 300//33 301//33
f 301//36 302//36 303//36
f 303//33 304//33 301//33
f 304//33 305//33 301//33
f 305//33 306//33 307//33
f 307//36 308//36 309//36
f 309//33 310//33 311//33
f 311//33 312//33 309//33
f 312//33 313//33 309//33
f 313//33 314//33 315//33
f 315//33 316//33 317//33
f 317//35 318//35 319//35
f 319//33 320//33 317//33
f 320//33 289//33 317//33
f 297//33 299//33 305//33
f 299//33 301//33 305//33
f 305//33 307//33 313//33
f 307//33 309//33 313//33
f 313//33 315//33 317//33
f 289//33 293//33 297//33
f 313//33 317//33 305//33
f 317//33 289//33 305//33
o Circle.001
v -3.388412 -22.590748 0.001524
v -3.442170 -22.590748 0.006818
v -3.493863 -22.590748 0.022499
v -3.541503 -22.590748 0.047963
v -3.583260 -22.590748 0.082232
v -3.617529 -22.590748 0.123989
v -3.642993 -22.590748 0.171630
v -3.658674 -22.590748 0.223322
v -3.663969 -22.590748 0.277081
v -3.658674 -22.590748 0.330839
v -3.642993 -22.590748 0.382532
v -3.617529 -22.590748 0.430172
v -3.583260 -22.590748 0.471929
v -3.541503 -22.590748 0.506198
v -3.493863 -22.590748 0.531663
v -3.442170 -22.590748 0.547343
v -3.388412 -22.590748 0.552638
v -3.334653 -22.590748 0.547343
v -3.282960 -22.590748 0.531662
v -3.235320 -22.590748 0.506198
v -3.193563 -22.590748 0.471929
v -3.159294 -22.590748 0.430172
v -3.133830 -22.590748 0.382532
v -3.118149 -22.590748 0.330839
v -3.112854 -22.590748 0.277081
v -3.118149 -22.590748 0.223322
v -3.133830 -22.590748 0.171629
v -3.159294 -22.590748 0.123989
v -3.193563 -22.590748 0.082232
v -3.235321 -22.590748 0.047963
v -3.282961 -22.590748 0.022499
v -3.334653 -22.590748 0.006818
vn 0.0000 1.0000 0.0000
vn 0.0000 1.0000 -0.0001
vn 0.0000 1.0000 -0.0002
vn 0.0000 1.0000 0.0002
vn 0.0000 1.0000 0.0001
vn 0.0000 1.0000 -0.0004
usemtl Bright
s off
f 321//37 329//37 337//37
f 321//38 322//38 325//38
f 322//37 323//37 325//37
f 323//39 324//39 325//39
f 325//37 326//37 327//37
f 327//37 328//37 325//37
f 328//37 329//37 325//37
f 329//37 330//37 331//37
f 331//37 332//37 333//37
f 333//37 334//37 335//37
f 335//37 336//37 333//37
f 336//37 337//37 333//37
f 337//37 338//37 339//37
f 339//40 340//40 341//40
f 341//37 342//37 343//37
f 343//37 344//37 341//37
f 344//41 345//41 341//41
f 345//38 346//38 347//38
f 347//37 348//37 349//37
f 349//42 350//42 351//42
f 351//37 352//37 349//37
f 352//37 321//37 349//37
f 329//37 331//37 337//37
f 331//37 333//37 337//37
f 337//37 339//37 345//37
f 339//37 341//37 345//37
f 345//37 347//37 349//37
f 321//37 325//37 329//37
f 345//37 349//37 337//37
f 349//37 321//37 337//37
o Circle
v -0.006612 -86.238449 -0.087322
v -0.023524 -86.238449 -0.085657
v -0.039787 -86.238449 -0.080723
v -0.054774 -86.238449 -0.072712
v -0.067911 -86.238449 -0.061931
v -0.078692 -86.238449 -0.048795
v -0.086703 -86.238449 -0.033807
v -0.091636 -86.238449 -0.017545
v -0.093302 -86.238449 -0.000633
v -0.091636 -86.238449 0.016280
v -0.086703 -86.238449 0.032542
v -0.078692 -86.238449 0.047530
v -0.067911 -86.238449 0.060666
v -0.054774 -86.238449 0.071447
v -0.039787 -86.238449 0.079458
v -0.023524 -86.238449 0.084391
v -0.006612 -86.238449 0.086057
v 0.010301 -86.238449 0.084391
v 0.026563 -86.238449 0.079458
v 0.041550 -86.238449 0.071447
v 0.054687 -86.238449 0.060666
v 0.065468 -86.238449 0.047530
v 0.073479 -86.238449 0.032542
v 0.078412 -86.238449 0.016280
v 0.080078 -86.238449 -0.000633
v 0.078412 -86.238449 -0.017545
v 0.073479 -86.238449 -0.033807
v 0.065468 -86.238449 -0.048795
v 0.054687 -86.238449 -0.061931
v 0.041550 -86.238449 -0.072712
v 0.026563 -86.238449 -0.080723
v 0.010300 -86.238449 -0.085657
vn 0.0000 1.0000 0.0001
vn 0.0000 1.0000 0.0015
vn 0.0000 1.0000 -0.0029
vn 0.0000 1.0000 0.0042
vn 0.0000 1.0000 0.0000
vn 0.0000 1.0000 -0.0015
vn 0.0000 1.0000 -0.0021
vn 0.0000 1.0000 0.0085
vn 0.0000 1.0000 -0.0042
vn 0.0000 1.0000 0.0011
vn 0.0000 1.0000 0.0021
vn 0.0000 1.0000 0.0029
vn 0.0000 1.0000 -0.0005
vn 0.0000 1.0000 -0.0002
usemtl Bright
s off
f 353//43 361//43 369//43
f 353//44 354//44 357//44
f 354//45 355//45 357//45
f 355//46 356//46 357//46
f 357//47 358//47 359//47
f 359//47 360//47 357//47
f 360//48 361//48 357//48
f 361//47 362//47 363//47
f 363//49 364//49 365//49
f 365//46 366//46 367//46
f 367//47 368//47 365//47
f 368//47 369//47 365//47
f 369//50 370//50 371//50
f 371//51 372//51 373//51
f 373//47 374//47 375//47
f 375//47 376//47 373//47
f 376//47 377//47 373//47
f 377//52 378//52 379//52
f 379//53 380//53 381//53
f 381//46 382//46 383//46
f 383//54 384//54 381//54
f 384//45 353//45 381//45
f 361//47 363//47 369//47
f 363//47 365//47 369//47
f 369//47 371//47 377//47
f 371//47 373//47 377//47
f 377//55 379//55 381//55
f 353//56 357//56 361//56
f 377//47 381//47 369//47
f 381//47 353//47 369//47
