# Blender v2.79 (sub 0) OBJ File: 'complex_room.blend'
# www.blender.org
mtllib complex_room_shtuters.mtl
o Plane.001
v -7.279112 5.760550 -4.397223
v -7.279111 5.760550 5.623220
v -7.279112 2.148179 -4.397223
v -7.279111 2.148179 5.623220
vn 1.0000 0.0000 -0.0000
usemtl None
s off
f 2//1 3//1 1//1
f 2//1 4//1 3//1
o Plane
v -4.532578 5.760549 -7.201355
v 5.487865 5.760549 -7.201355
v -4.532578 2.148179 -7.201355
v 5.487865 2.148179 -7.201355
vn 0.0000 0.0000 -1.0000
usemtl None
s off
f 6//2 7//2 5//2
f 6//2 8//2 7//2
