# Blender v2.79 (sub 0) OBJ File: 'pen.blend'
# www.blender.org
mtllib pen_ground.mtl
o Cylinder.001_Cylinder
v 0.000000 0.000000 -4.687009
v 0.914390 0.000000 -4.596950
v 1.793641 0.000000 -4.330232
v 2.603963 0.000000 -3.897106
v 3.314216 0.000000 -3.314216
v 3.897106 0.000000 -2.603963
v 4.330232 0.000000 -1.793641
v 4.596950 0.000000 -0.914390
v 4.687009 0.000000 -0.000000
v 4.596950 0.000000 0.914390
v 4.330232 0.000000 1.793640
v 3.897106 0.000000 2.603963
v 3.314216 0.000000 3.314216
v 2.603963 0.000000 3.897106
v 1.793640 0.000000 4.330233
v 0.914389 0.000000 4.596950
v -0.000002 0.000000 4.687009
v -0.914392 0.000000 4.596950
v -1.793643 0.000000 4.330231
v -2.603965 0.000000 3.897104
v -3.314218 0.000000 3.314214
v -3.897108 0.000000 2.603960
v -4.330234 0.000000 1.793637
v -4.596951 0.000000 0.914386
v -4.687009 0.000000 -0.000005
v -4.596949 0.000000 -0.914395
v -4.330230 0.000000 -1.793646
v -3.897103 0.000000 -2.603968
v -3.314212 0.000000 -3.314220
v -2.603958 0.000000 -3.897109
v -1.793635 0.000000 -4.330235
v -0.914383 0.000000 -4.596951
v 0.000000 -0.177573 -4.687009
v 0.914390 -0.177573 -4.596950
v 1.793641 -0.177573 -4.330232
v 2.603963 -0.177573 -3.897106
v 3.314216 -0.177573 -3.314216
v 3.897106 -0.177573 -2.603963
v 4.330232 -0.177573 -1.793641
v 4.596950 -0.177573 -0.914390
v 4.687009 -0.177573 -0.000000
v 4.596950 -0.177573 0.914390
v 4.330232 -0.177573 1.793640
v 3.897106 -0.177573 2.603963
v 3.314216 -0.177573 3.314216
v 2.603963 -0.177573 3.897106
v 1.793640 -0.177573 4.330233
v 0.914389 -0.177573 4.596950
v -0.000002 -0.177573 4.687009
v -0.914392 -0.177573 4.596950
v -1.793643 -0.177573 4.330231
v -2.603965 -0.177573 3.897104
v -3.314218 -0.177573 3.314214
v -3.897108 -0.177573 2.603960
v -4.330234 -0.177573 1.793637
v -4.596951 -0.177573 0.914386
v -4.687009 -0.177573 -0.000005
v -4.596949 -0.177573 -0.914395
v -4.330230 -0.177573 -1.793646
v -3.897103 -0.177573 -2.603968
v -3.314212 -0.177573 -3.314220
v -2.603958 -0.177573 -3.897109
v -1.793635 -0.177573 -4.330235
v -0.914383 -0.177573 -4.596951
vt 0.498277 0.963177
vt 0.798195 0.502442
vt 0.498276 0.041708
vt 0.221189 0.678758
vt 0.383503 0.076779
vt 0.775365 0.326127
vt 0.792432 0.412558
vt 0.775365 0.326127
vt 0.204121 0.412558
vt 0.198359 0.502443
vt 0.198359 0.502443
vt 0.747649 0.246472
vt 0.747649 0.246472
vt 0.204121 0.592328
vt 0.204121 0.592328
vt 0.710351 0.176654
vt 0.710351 0.176654
vt 0.221189 0.678758
vt 0.664902 0.119356
vt 0.664902 0.119356
vt 0.248904 0.758413
vt 0.248904 0.758413
vt 0.613050 0.076779
vt 0.613050 0.076779
vt 0.556788 0.954324
vt 0.556788 0.954324
vt 0.286203 0.828231
vt 0.286203 0.828231
vt 0.556788 0.050561
vt 0.556788 0.050561
vt 0.613050 0.928106
vt 0.613050 0.928106
vt 0.331651 0.885530
vt 0.331651 0.885530
vt 0.498276 0.041708
vt 0.664902 0.885529
vt 0.664902 0.885529
vt 0.383503 0.928106
vt 0.383503 0.928106
vt 0.439765 0.050561
vt 0.439765 0.050561
vt 0.710351 0.828231
vt 0.710351 0.828231
vt 0.439766 0.954324
vt 0.439766 0.954324
vt 0.383503 0.076779
vt 0.747649 0.758413
vt 0.747649 0.758413
vt 0.498277 0.963177
vt 0.331651 0.119356
vt 0.331651 0.119356
vt 0.775365 0.678758
vt 0.775365 0.678758
vt 0.286202 0.176654
vt 0.286202 0.176654
vt 0.792432 0.592327
vt 0.792432 0.592327
vt 0.248904 0.246472
vt 0.248904 0.246472
vt 0.798195 0.502442
vt 0.221188 0.326127
vt 0.221188 0.326127
vt 0.792432 0.412558
vt 0.204121 0.412558
vn 0.0000 -1.0000 0.0000
vn 0.0000 1.0000 0.0000
vn -0.9569 0.0000 -0.2903
vn 0.9952 0.0000 -0.0980
vn -0.8819 0.0000 -0.4714
vn 0.9952 0.0000 0.0980
vn -0.7730 0.0000 -0.6344
vn 0.9569 0.0000 0.2903
vn -0.6344 0.0000 -0.7730
vn 0.8819 0.0000 0.4714
vn -0.4714 0.0000 -0.8819
vn -0.0980 0.0000 0.9952
vn 0.7730 0.0000 0.6344
vn -0.2903 0.0000 -0.9569
vn -0.2903 0.0000 0.9569
vn 0.6344 0.0000 0.7730
vn -0.0980 0.0000 -0.9952
vn -0.4714 0.0000 0.8819
vn 0.4714 0.0000 0.8819
vn 0.0980 0.0000 -0.9952
vn -0.6344 0.0000 0.7730
vn 0.2903 0.0000 0.9569
vn 0.2903 0.0000 -0.9569
vn -0.7730 0.0000 0.6344
vn 0.0980 0.0000 0.9952
vn 0.4714 0.0000 -0.8819
vn -0.8819 0.0000 0.4714
vn 0.6344 0.0000 -0.7730
vn -0.9569 0.0000 0.2903
vn 0.7730 0.0000 -0.6344
vn -0.9952 0.0000 0.0980
vn 0.8819 0.0000 -0.4714
vn -0.9952 0.0000 -0.0980
vn 0.9569 0.0000 -0.2903
usemtl Material.002
s off
f 1/1/1 9/2/1 17/3/1
f 59/4/2 51/5/2 43/6/2
f 10/7/3 43/6/3 11/8/3
f 24/9/4 57/10/4 25/11/4
f 11/8/5 44/12/5 12/13/5
f 25/11/6 58/14/6 26/15/6
f 12/13/7 45/16/7 13/17/7
f 26/15/8 59/4/8 27/18/8
f 13/17/9 46/19/9 14/20/9
f 27/18/10 60/21/10 28/22/10
f 14/20/11 47/23/11 15/24/11
f 1/1/12 34/25/12 2/26/12
f 28/22/13 61/27/13 29/28/13
f 15/24/14 48/29/14 16/30/14
f 2/26/15 35/31/15 3/32/15
f 29/28/16 62/33/16 30/34/16
f 16/30/17 49/35/17 17/3/17
f 3/32/18 36/36/18 4/37/18
f 30/34/19 63/38/19 31/39/19
f 17/3/20 50/40/20 18/41/20
f 4/37/21 37/42/21 5/43/21
f 31/39/22 64/44/22 32/45/22
f 18/41/23 51/5/23 19/46/23
f 5/43/24 38/47/24 6/48/24
f 32/45/25 33/49/25 1/1/25
f 19/46/26 52/50/26 20/51/26
f 6/48/27 39/52/27 7/53/27
f 20/51/28 53/54/28 21/55/28
f 7/53/29 40/56/29 8/57/29
f 21/55/30 54/58/30 22/59/30
f 8/57/31 41/60/31 9/2/31
f 22/59/32 55/61/32 23/62/32
f 9/2/33 42/63/33 10/7/33
f 23/62/34 56/64/34 24/9/34
f 1/1/1 2/26/1 5/43/1
f 2/26/1 3/32/1 5/43/1
f 3/32/1 4/37/1 5/43/1
f 5/43/1 6/48/1 7/53/1
f 7/53/1 8/57/1 5/43/1
f 8/57/1 9/2/1 5/43/1
f 9/2/1 10/7/1 11/8/1
f 11/8/1 12/13/1 13/17/1
f 13/17/1 14/20/1 15/24/1
f 15/24/1 16/30/1 13/17/1
f 16/30/1 17/3/1 13/17/1
f 17/3/1 18/41/1 19/46/1
f 19/46/1 20/51/1 21/55/1
f 21/55/1 22/59/1 23/62/1
f 23/62/1 24/9/1 21/55/1
f 24/9/1 25/11/1 21/55/1
f 25/11/1 26/15/1 27/18/1
f 27/18/1 28/22/1 29/28/1
f 29/28/1 30/34/1 31/39/1
f 31/39/1 32/45/1 29/28/1
f 32/45/1 1/1/1 29/28/1
f 9/2/1 11/8/1 17/3/1
f 11/8/1 13/17/1 17/3/1
f 17/3/1 19/46/1 25/11/1
f 19/46/1 21/55/1 25/11/1
f 25/11/1 27/18/1 29/28/1
f 1/1/1 5/43/1 9/2/1
f 25/11/1 29/28/1 17/3/1
f 29/28/1 1/1/1 17/3/1
f 35/31/2 34/25/2 33/49/2
f 33/49/2 64/44/2 35/31/2
f 64/44/2 63/38/2 35/31/2
f 63/38/2 62/33/2 61/27/2
f 61/27/2 60/21/2 59/4/2
f 59/4/2 58/14/2 57/10/2
f 57/10/2 56/64/2 59/4/2
f 56/64/2 55/61/2 59/4/2
f 55/61/2 54/58/2 51/5/2
f 54/58/2 53/54/2 51/5/2
f 53/54/2 52/50/2 51/5/2
f 51/5/2 50/40/2 49/35/2
f 49/35/2 48/29/2 47/23/2
f 47/23/2 46/19/2 45/16/2
f 45/16/2 44/12/2 43/6/2
f 43/6/2 42/63/2 41/60/2
f 41/60/2 40/56/2 43/6/2
f 40/56/2 39/52/2 43/6/2
f 39/52/2 38/47/2 37/42/2
f 37/42/2 36/36/2 35/31/2
f 63/38/2 61/27/2 35/31/2
f 61/27/2 59/4/2 35/31/2
f 51/5/2 49/35/2 43/6/2
f 49/35/2 47/23/2 43/6/2
f 47/23/2 45/16/2 43/6/2
f 39/52/2 37/42/2 43/6/2
f 37/42/2 35/31/2 43/6/2
f 59/4/2 55/61/2 51/5/2
f 35/31/2 59/4/2 43/6/2
f 10/7/3 42/63/3 43/6/3
f 24/9/4 56/64/4 57/10/4
f 11/8/5 43/6/5 44/12/5
f 25/11/6 57/10/6 58/14/6
f 12/13/7 44/12/7 45/16/7
f 26/15/8 58/14/8 59/4/8
f 13/17/9 45/16/9 46/19/9
f 27/18/10 59/4/10 60/21/10
f 14/20/11 46/19/11 47/23/11
f 1/1/12 33/49/12 34/25/12
f 28/22/13 60/21/13 61/27/13
f 15/24/14 47/23/14 48/29/14
f 2/26/15 34/25/15 35/31/15
f 29/28/16 61/27/16 62/33/16
f 16/30/17 48/29/17 49/35/17
f 3/32/18 35/31/18 36/36/18
f 30/34/19 62/33/19 63/38/19
f 17/3/20 49/35/20 50/40/20
f 4/37/21 36/36/21 37/42/21
f 31/39/22 63/38/22 64/44/22
f 18/41/23 50/40/23 51/5/23
f 5/43/24 37/42/24 38/47/24
f 32/45/25 64/44/25 33/49/25
f 19/46/26 51/5/26 52/50/26
f 6/48/27 38/47/27 39/52/27
f 20/51/28 52/50/28 53/54/28
f 7/53/29 39/52/29 40/56/29
f 21/55/30 53/54/30 54/58/30
f 8/57/31 40/56/31 41/60/31
f 22/59/32 54/58/32 55/61/32
f 9/2/33 41/60/33 42/63/33
f 23/62/34 55/61/34 56/64/34
