# Blender v2.79 (sub 0) OBJ File: ''
# www.blender.org
mtllib table.mtl
o Cube_Cube.001
v -1.872877 0.010598 -1.809100
v -1.872877 1.096033 -1.809100
v -1.872877 0.010598 -1.876982
v -1.872877 1.096033 -1.876982
v -1.810080 0.010598 -1.809100
v -1.810080 1.096033 -1.809100
v -1.810080 0.010598 -1.876982
v -1.810080 1.096033 -1.876982
v -1.872877 0.010598 0.191750
v -1.872877 1.096033 0.191750
v -1.872877 0.010598 0.123868
v -1.872877 1.096033 0.123868
v -1.810080 0.010598 0.191750
v -1.810080 1.096033 0.191750
v -1.810080 0.010598 0.123868
v -1.810080 1.096033 0.123868
v -1.037199 0.010598 -1.809100
v -1.037199 1.096033 -1.809100
v -1.037199 0.010598 -1.876982
v -1.037199 1.096033 -1.876982
v -0.974403 0.010598 -1.809100
v -0.974403 1.096033 -1.809100
v -0.974403 0.010598 -1.876982
v -0.974403 1.096033 -1.876982
v -1.037199 0.010598 0.191750
v -1.037199 1.096033 0.191750
v -1.037199 0.010598 0.123868
v -1.037199 1.096033 0.123868
v -0.974403 0.010598 0.191750
v -0.974403 1.096033 0.191750
v -0.974403 0.010598 0.123868
v -0.974403 1.096033 0.123868
v -1.938594 1.084526 0.235802
v -0.916489 1.084526 0.235802
v -1.938594 1.084526 -1.945659
v -0.916489 1.084526 -1.945659
v -1.938594 1.115178 -1.945659
v -1.938594 1.115178 0.235802
v -0.916489 1.115178 0.235802
v -0.916489 1.115178 -1.945659
vn -1.0000 0.0000 0.0000
vn 0.0000 0.0000 -1.0000
vn 1.0000 0.0000 0.0000
vn 0.0000 0.0000 1.0000
vn 0.0000 -1.0000 0.0000
vn 0.0000 1.0000 0.0000
usemtl None
s off
f 2//1 3//1 1//1
f 4//2 7//2 3//2
f 8//3 5//3 7//3
f 6//4 1//4 5//4
f 10//1 11//1 9//1
f 12//2 15//2 11//2
f 16//3 13//3 15//3
f 14//4 9//4 13//4
f 18//1 19//1 17//1
f 20//2 23//2 19//2
f 24//3 21//3 23//3
f 22//4 17//4 21//4
f 26//1 27//1 25//1
f 28//2 31//2 27//2
f 32//3 29//3 31//3
f 30//4 25//4 29//4
f 35//5 34//5 33//5
f 39//6 37//6 38//6
f 36//3 39//3 34//3
f 33//1 37//1 35//1
f 35//2 40//2 36//2
f 34//4 38//4 33//4
f 2//1 4//1 3//1
f 4//2 8//2 7//2
f 8//3 6//3 5//3
f 6//4 2//4 1//4
f 10//1 12//1 11//1
f 12//2 16//2 15//2
f 16//3 14//3 13//3
f 14//4 10//4 9//4
f 18//1 20//1 19//1
f 20//2 24//2 23//2
f 24//3 22//3 21//3
f 22//4 18//4 17//4
f 26//1 28//1 27//1
f 28//2 32//2 31//2
f 32//3 30//3 29//3
f 30//4 26//4 25//4
f 35//5 36//5 34//5
f 39//6 40//6 37//6
f 36//3 40//3 39//3
f 33//1 38//1 37//1
f 35//2 37//2 40//2
f 34//4 39//4 38//4
